<?xml version="1.0" encoding="utf-8"?>
<!-- Generator: Adobe Illustrator 27.4.0, SVG Export Plug-In . SVG Version: 6.00 Build 0)  -->
<svg version="1.1" id="Layer_1" xmlns="http://www.w3.org/2000/svg" xmlns:xlink="http://www.w3.org/1999/xlink" x="0px" y="0px"
	 width="245.8px" height="44px" viewBox="0 0 245.8 44" style="enable-background:new 0 0 245.8 44;" xml:space="preserve">
<style type="text/css">
	.st0{fill:#000048;}
	.st1{clip-path:url(#SVGID_00000007411202148271764560000007838746792146005403_);}
	.st2{fill:#E30303;}
	.st3{fill:#FE8B00;}
	.st4{fill:#FEEC00;}
	.st5{fill:#004DFE;}
	.st6{fill:#750786;}
	.st7{fill:#008026;}
	.st8{clip-path:url(#SVGID_00000112634971467457382430000003295023183830968470_);}
	.st9{fill:#E71A03;}
	.st10{fill:#61139A;}
</style>
<g>
	<path class="st0" d="M158.8,10.6h3.7v22h-3.7V10.6z M145.4,10.1c-2.4,0-4.7,0.9-6.4,2.3v-1.8h-3.7v22h3.7V20.2
		c0-3.6,2.8-6.4,6.4-6.4s6.4,2.8,6.4,6.4v12.4h3.7V20.2C155.5,14.7,150.9,10.1,145.4,10.1L145.4,10.1z M127.8,10.6h3.7v21.2l0,0
		c0,6.4-5.5,11.5-11.5,11.5c-5.5,0-9.5-3.3-11-7.9h4c1.2,2.6,3.6,4.3,7,4.3c4,0,7.8-3.5,7.8-7.8v-1.8c-2,1.9-4.9,3.1-7.8,3.1
		c-6.4,0-11.5-5.1-11.5-11.5s5.1-11.5,11.5-11.5c3.1,0,5.8,1.2,7.8,3.1L127.8,10.6L127.8,10.6z M127.8,21.6c0-4.3-3.5-7.8-7.8-7.8
		c-4.3,0-7.8,3.5-7.8,7.8s3.5,7.8,7.8,7.8C124.4,29.4,127.8,26,127.8,21.6z M70.9,13.8c3.2,0,5.9,1.9,7.2,4.5h4
		c-1.4-4.7-5.9-8.2-11-8.2c-6.4,0-11.5,5.1-11.5,11.5S64.6,33.1,71,33.1c5.2,0,9.6-3.5,11-8.2h-4c-1.3,2.7-4,4.5-7.2,4.5
		c-4.3,0-7.8-3.5-7.8-7.8S66.5,13.7,70.9,13.8L70.9,13.8z M106.7,21.6c0,6.4-5.1,11.5-11.5,11.5c-6.4,0-11.5-5.1-11.5-11.5
		s5.1-11.5,11.5-11.5C101.6,10.1,106.7,15.2,106.7,21.6z M103,21.6c0-4.3-3.5-7.8-7.8-7.8c-4.3,0-7.8,3.5-7.8,7.8s3.5,7.8,7.8,7.8
		C99.6,29.4,103,26,103,21.6z M223.4,10.1c-2.4,0-4.7,0.9-6.4,2.3v-1.8h-3.7v22h3.7V20.2c0-3.6,2.8-6.4,6.4-6.4s6.4,2.8,6.4,6.4
		v12.4h3.7V20.2C233.5,14.6,228.9,10.1,223.4,10.1z M205.9,10.6h3.7v22h-3.7v-2.6c-2,1.9-4.9,3.1-7.8,3.1c-6.4,0-11.5-5.1-11.5-11.5
		s5.1-11.5,11.5-11.5l0,0c3.1,0,5.8,1.2,7.8,3.1C205.9,13.2,205.9,10.6,205.9,10.6z M205.9,21.6c0-4.3-3.5-7.8-7.8-7.8
		c-4.3,0-7.8,3.5-7.8,7.8s3.5,7.8,7.8,7.8C202.4,29.4,205.9,26,205.9,21.6z M245.8,14.3v-3.7h-5.5v-6h-3.7v20.7
		c0,4.1,3.3,7.4,7.4,7.4h1.8V29H244c-2,0-3.7-1.7-3.7-3.7v-11L245.8,14.3L245.8,14.3z M160.6,2.7c-1.4,0-2.4,1-2.4,2.4
		s1.2,2.4,2.4,2.4c1.3,0,2.4-1,2.4-2.4S162,2.7,160.6,2.7z M184.6,10.6h-18.4v3.7h13.6L166.2,29v3.7h18.4V29h-13.6l13.6-14.7V10.6z"
		/>
	<g>
		<g>
			<defs>
				<path id="SVGID_1_" d="M31,34.5L15.3,44L0,22h22.1L31,34.5L31,34.5z M0,22h22.1L31,9.5L15.1,0L0,22L0,22z"/>
			</defs>
			<clipPath id="SVGID_00000114070661895149137140000017778216801697767069_">
				<use xlink:href="#SVGID_1_"  style="overflow:visible;"/>
			</clipPath>
			<g style="clip-path:url(#SVGID_00000114070661895149137140000017778216801697767069_);">
				<g>
					<path class="st2" d="M44.7,36.7c0,2.3,0,4.6,0,6.9c0,0.4-0.1,0.5-0.5,0.5c-14.2,0-28.5,0-42.7,0c-11.5,0-23,0-34.5,0
						c-0.4,0-0.5-0.1-0.5-0.5c0-2.3,0-4.6,0-6.9c0.3,0,0.5,0,0.6,0c25.6,0,51.3,0,76.9,0C44.2,36.7,44.4,36.7,44.7,36.7L44.7,36.7z"
						/>
					<path class="st3" d="M44.7,36.7c-0.3,0-0.4,0-0.6,0c-25.6,0-51.3,0-76.9,0c-0.3,0-0.5,0-0.6,0v-7.4c0.3,0,0.5,0,0.8,0
						c25.6,0,51,0,76.6,0c0.3,0,0.5,0,0.8,0V36.7L44.7,36.7z"/>
					<path class="st4" d="M44.7,29.4c-0.3,0-0.5,0-0.8,0c-25.6,0-51,0-76.6,0c-0.3,0-0.5,0-0.8,0V22c0.3,0.1,0.5,0,0.8,0
						c25.6,0,51.2,0,76.8,0c0.3,0,0.5,0,0.8,0L44.7,29.4L44.7,29.4z"/>
					<path class="st5" d="M44.7,7.4v7.4c-0.3,0-0.5,0-0.8,0c-25.6,0-51,0-76.6,0c-0.3,0-0.5,0-0.8,0V7.4c0.3,0,0.4,0,0.6,0
						c25.7,0,51.3,0,77,0C44.3,7.4,44.4,7.4,44.7,7.4L44.7,7.4z"/>
					<path class="st6" d="M44.7,7.4c-0.3,0-0.4,0-0.6,0c-25.7,0-51.3,0-77,0c-0.3,0-0.4,0-0.6,0c0-2.3,0-4.6,0-6.9
						c0-0.4,0.1-0.5,0.5-0.5C-18.8,0-4.5,0,9.7,0C21.3,0,32.6,0,44,0c0.4,0,0.5,0.1,0.5,0.5C44.7,2.8,44.7,5.1,44.7,7.4L44.7,7.4z"
						/>
					<path class="st7" d="M-33.6,14.7c0.3,0,0.5,0,0.8,0c25.6,0,51,0,76.6,0c0.3,0,0.5,0,0.8,0V22c-0.3,0.1-0.5,0-0.8,0
						C18.2,22-7.4,22-33,22c-0.3,0-0.5,0-0.8,0L-33.6,14.7L-33.6,14.7z"/>
				</g>
			</g>
		</g>
	</g>
	<g>
		<g>
			<defs>
				<path id="SVGID_00000120537588032467287250000005514840010510896281_" d="M37,43.9H15.3L52,22C52,22,37,43.9,37,43.9z M37,0.1
					H15.3L52,22C52,22,37,0.1,37,0.1z"/>
			</defs>
			<clipPath id="SVGID_00000062190598911912920150000014270431694745056937_">
				<use xlink:href="#SVGID_00000120537588032467287250000005514840010510896281_"  style="overflow:visible;"/>
			</clipPath>
			<g style="clip-path:url(#SVGID_00000062190598911912920150000014270431694745056937_);">
				<g>
					<path class="st3" d="M14.9,14.5V7H15c0.3,0,0.5,0,0.8,0c25.7,0,51.4,0,77.1,0c0.3,0,0.5,0,0.8,0h0.1v7.4c-0.3,0-0.5,0-0.8,0
						c-25.8,0-51.6,0-77.4,0C15.4,14.5,15.1,14.5,14.9,14.5z"/>
					<path class="st4" d="M14.9,14.5c0.3,0,0.5,0,0.8,0c25.8,0,51.6,0,77.4,0c0.3,0,0.5,0,0.8,0v7.4c-0.8,0-1.5,0-2.4,0
						c-25.3,0-50.5,0-75.7,0c-0.3,0-0.5,0-0.8,0V14.5L14.9,14.5z"/>
					<path class="st5" d="M93.8,29.2v7.4h-0.1c-0.3,0-0.4,0-0.6,0c-25.8,0-51.6,0-77.4,0c-0.3,0-0.4,0-0.6,0h-0.1c0-2.4,0-5,0-7.4
						c0.3,0,0.5,0,0.8,0c25.8,0,51.6,0,77.3,0C93.2,29.3,93.4,29.2,93.8,29.2L93.8,29.2z"/>
					<path class="st2" d="M93.7,7c-0.3,0-0.5,0-0.8,0C67.2,7,41.5,7,15.8,7c-0.3,0-0.5,0-0.8,0l-0.1-0.1c0-2.3,0-4.6,0-6.9
						c0-0.4,0.1-0.5,0.5-0.5c14.3,0,28.8,0,43.1,0c11.6,0,23.3,0,34.8,0c0.4,0,0.5,0.1,0.5,0.5c0,2.3,0,4.6,0,6.9L93.7,7L93.7,7z"/>
					<path class="st6" d="M15,36.7c0.3,0,0.4,0,0.6,0c25.7,0,51.6,0,77.4,0c0.3,0,0.4,0,0.6,0l0.1,0.1c0,2.3,0,4.6,0,6.9
						c0,0.4-0.1,0.5-0.5,0.5c-14.5,0-28.9,0-43.2,0c-11.5,0-23.2,0-34.7,0c-0.4,0-0.5-0.1-0.5-0.5c0-2.3,0-4.6,0-6.9L15,36.7
						L15,36.7z"/>
					<path class="st7" d="M93.8,29.2c-0.3,0-0.5,0-0.8,0c-25.8,0-51.6,0-77.4,0c-0.3,0-0.5,0-0.8,0v-7.3c0.3-0.1,0.5,0,0.8,0
						c25.3,0,50.5,0,75.7,0c0.8,0,1.5,0,2.4,0V29.2z"/>
				</g>
			</g>
		</g>
	</g>
</g>
</svg>
